HIERARCHY
ROOT Hips
{
	OFFSET 0.000000 0.000000 0.000000
	CHANNELS 6 Xposition Yposition Zposition Xrotation Yrotation Zrotation
	JOINT LeftUpLeg_virtual
	{
		OFFSET 0.000000 0.000000 0.000000
		CHANNELS 3 Xrotation Yrotation Zrotation
		JOINT LeftUpLeg
		{
			OFFSET 15.427100 -6.655098 0.678600
			CHANNELS 3 Xrotation Yrotation Zrotation
			JOINT LeftLeg
			{
				OFFSET 4.081073 -39.591068 13.024000
				CHANNELS 3 Xrotation Yrotation Zrotation
				JOINT LeftFoot
				{
					OFFSET -4.081074 -37.707932 -15.979700
					CHANNELS 3 Xrotation Yrotation Zrotation
					JOINT LeftToeBase
					{
						OFFSET 5.346399 -15.068900 20.645000
						CHANNELS 3 Xrotation Yrotation Zrotation
						JOINT LeftToe_End
						{
							OFFSET 2.754700 0.931300 11.300900
							CHANNELS 3 Xrotation Yrotation Zrotation
							End Site
							{
								OFFSET 0 0 0
							}
						}
					}
				}
			}
		}
	}
	JOINT RightUpLeg_virtual
	{
		OFFSET 0.000000 0.000000 0.000000
		CHANNELS 3 Xrotation Yrotation Zrotation
		JOINT RightUpLeg
		{
			OFFSET -15.569500 -6.655098 0.678600
			CHANNELS 3 Xrotation Yrotation Zrotation
			JOINT RightLeg
			{
				OFFSET -4.081825 -39.591045 13.023800
				CHANNELS 3 Xrotation Yrotation Zrotation
				JOINT RightFoot
				{
					OFFSET 4.081824 -37.707954 -15.979600
					CHANNELS 3 Xrotation Yrotation Zrotation
					JOINT RightToeBase
					{
						OFFSET -5.346400 -15.068900 20.645000
						CHANNELS 3 Xrotation Yrotation Zrotation
						JOINT RightToe_End
						{
							OFFSET -2.754700 0.931300 11.300900
							CHANNELS 3 Xrotation Yrotation Zrotation
							End Site
							{
								OFFSET 0 0 0
							}
						}
					}
				}
			}
		}
	}
	JOINT Spine_virtual
	{
		OFFSET 0.000000 0.000000 0.000000
		CHANNELS 3 Xrotation Yrotation Zrotation
		JOINT Spine
		{
			OFFSET -0.279200 12.230698 -2.892100
			CHANNELS 3 Xrotation Yrotation Zrotation
			JOINT Spine1
			{
				OFFSET -0.232667 10.192268 -1.242267
				CHANNELS 3 Xrotation Yrotation Zrotation
				JOINT Spine1_split
				{
					OFFSET -0.232667 10.192268 -1.242267
					CHANNELS 3 Xrotation Yrotation Zrotation
					JOINT Spine2
					{
						OFFSET -0.232667 10.192268 -1.242267
						CHANNELS 3 Xrotation Yrotation Zrotation
						JOINT Neck_virtual
						{
							OFFSET 0.000000 0.000000 0.000000
							CHANNELS 3 Xrotation Yrotation Zrotation
							JOINT Neck
							{
								OFFSET -0.418800 17.814194 8.416900
								CHANNELS 3 Xrotation Yrotation Zrotation
								JOINT Head
								{
									OFFSET 0.000000 7.031097 3.806800
									CHANNELS 3 Xrotation Yrotation Zrotation
									JOINT HeadTop_End
									{
										OFFSET 0.000000 24.646606 12.978600
										CHANNELS 3 Xrotation Yrotation Zrotation
										End Site
										{
											OFFSET 0 0 0
										}
									}
								}
							}
						}
						JOINT LeftShoulder_virtual
						{
							OFFSET 0.000000 0.000000 0.000000
							CHANNELS 3 Xrotation Yrotation Zrotation
							JOINT LeftShoulder
							{
								OFFSET 8.476499 7.247704 -3.868750
								CHANNELS 3 Xrotation Yrotation Zrotation
								JOINT LeftShoulder_split
								{
									OFFSET 8.476499 7.247704 -3.868750
									CHANNELS 3 Xrotation Yrotation Zrotation
									JOINT LeftArm
									{
										OFFSET 9.308998 -2.777710 0.208600
										CHANNELS 3 Xrotation Yrotation Zrotation
										JOINT LeftForeArm
										{
											OFFSET 29.972298 0.000000 0.000000
											CHANNELS 3 Xrotation Yrotation Zrotation
											JOINT LeftHand
											{
												OFFSET 26.026505 0.000000 0.000000
												CHANNELS 3 Xrotation Yrotation Zrotation
												End Site
												{
													OFFSET 0 0 0
												}
											}
										}
									}
								}
							}
						}
						JOINT RightShoulder_virtual
						{
							OFFSET 0.000000 0.000000 0.000000
							CHANNELS 3 Xrotation Yrotation Zrotation
							JOINT RightShoulder
							{
								OFFSET -7.570500 7.247704 -3.868750
								CHANNELS 3 Xrotation Yrotation Zrotation
								JOINT RightShoulder_split
								{
									OFFSET -7.570500 7.247704 -3.868750
									CHANNELS 3 Xrotation Yrotation Zrotation
									JOINT RightArm
									{
										OFFSET -9.308998 -2.777710 0.208500
										CHANNELS 3 Xrotation Yrotation Zrotation
										JOINT RightForeArm
										{
											OFFSET -29.972300 0.000000 0.000000
											CHANNELS 3 Xrotation Yrotation Zrotation
											JOINT RightHand
											{
												OFFSET -26.026505 0.000000 0.000000
												CHANNELS 3 Xrotation Yrotation Zrotation
												End Site
												{
													OFFSET 0 0 0
												}
											}
										}
									}
								}
							}
						}
					}
				}
			}
		}
	}
}
MOTION
Frames: 5
Frame Time: 0.03333333
8.150675 76.693069 -3.874168 0.000000 0.000000 0.000000 171.757469 -79.921512 -179.201897 8.829754 18.422999 8.491494 28.098111 10.929647 -4.616038 -25.523630 20.962742 -21.596129 -3.617914 -0.539458 0.174705 0.000000 0.000000 0.000000 166.256654 -80.125277 175.506068 -45.742057 22.017951 -17.343636 36.704576 2.047903 -7.063499 -4.374604 18.017680 22.189698 0.387589 3.711394 1.744779 0.000000 0.000000 0.000000 164.677855 -81.578782 173.533209 24.762605 -11.959978 9.331584 22.485988 -2.557861 0.642985 0.886615 -1.316683 1.553100 0.000000 0.000000 0.000000 21.898970 -2.843466 0.684529 11.117379 -3.381584 -5.478350 -26.702474 17.021866 -9.492183 0.000000 0.000000 0.000000 23.733809 -3.094458 0.919532 -0.675410 -11.125529 10.733135 -1.889724 -2.734634 0.955944 16.273061 18.690101 -75.736573 10.261026 -80.798160 8.672739 0.000000 0.000000 0.000000 22.448399 -2.885377 1.194460 6.960356 17.289869 13.192774 4.812166 3.869262 4.495064 -62.056551 51.609367 52.289797 177.838564 67.586026 -176.776470 0.000000 0.000000 0.000000 
8.307535 76.557640 -4.265553 0.000000 0.000000 0.000000 -179.242182 -82.333942 -169.486855 6.938536 19.783848 10.329532 30.189525 9.376687 -4.665902 -25.874690 17.760927 -21.189801 -4.509106 -0.506072 0.456625 0.000000 0.000000 0.000000 174.023057 -83.476728 -176.208348 -45.089173 19.616098 -19.841011 40.688414 1.662500 -6.888931 -6.535143 15.019221 21.287301 1.649762 3.635010 1.471083 0.000000 0.000000 0.000000 173.231820 -83.613550 -177.616351 23.710749 -12.618383 8.781030 22.270481 -2.849615 0.838102 1.561988 -0.812206 1.501026 0.000000 0.000000 0.000000 21.520575 -3.182821 0.845999 10.156609 -3.098663 -7.162309 -23.146540 18.921052 -11.096508 0.000000 0.000000 0.000000 23.455655 -3.356343 1.188476 -0.644441 -9.829459 9.962260 -1.742026 -3.396742 0.897993 8.199248 27.295845 -70.908599 -1.186363 -85.531959 -1.770549 0.000000 0.000000 0.000000 22.110205 -3.205485 1.334335 7.243035 18.535974 13.278162 4.111528 3.914250 4.537907 -57.095662 45.774903 46.518011 177.429873 66.902570 -176.556538 0.000000 0.000000 0.000000 
8.243496 76.679459 -4.897388 0.000000 0.000000 0.000000 -157.135059 -85.224430 -146.685047 4.133140 20.439194 12.992792 32.148468 7.455613 -4.376245 -25.212612 13.765482 -21.309005 -4.592891 -0.426488 0.495280 0.000000 0.000000 0.000000 -154.994587 -87.416080 -144.746503 -44.052381 17.264615 -22.814423 45.867408 1.338723 -6.317797 -8.116597 11.723905 21.038139 2.191762 3.438119 1.115866 0.000000 0.000000 0.000000 -168.091611 -86.361643 -158.851021 22.363206 -12.684059 8.361280 21.708916 -3.092525 1.085315 1.828230 -0.044381 1.126007 0.000000 0.000000 0.000000 21.144954 -3.496712 1.057900 8.584833 -2.857203 -7.436068 -19.543553 20.426803 -12.522996 0.000000 0.000000 0.000000 22.959645 -3.536159 1.476005 -0.560243 -8.771344 9.617419 -1.021093 -3.089225 0.435837 0.656336 30.443830 -66.883767 -154.535134 -87.015285 -154.175579 0.000000 0.000000 0.000000 21.704869 -3.495527 1.454401 7.537121 19.735762 13.040193 3.119476 3.997192 4.073292 -55.096342 40.808546 44.136723 177.943094 66.904749 -177.301534 0.000000 0.000000 0.000000 
8.063093 76.941757 -5.525017 0.000000 0.000000 0.000000 -93.922450 -86.481697 -83.055408 0.699799 20.047671 15.950064 33.731145 5.636141 -3.779259 -24.050674 9.525519 -21.506995 -3.786516 -0.306632 0.224071 0.000000 0.000000 0.000000 -48.362370 -86.202233 -37.744769 -42.247418 15.338303 -25.630633 51.105859 1.185101 -5.731478 -9.393008 8.320383 21.488573 2.018023 3.137467 0.888747 0.000000 0.000000 0.000000 -94.860959 -87.787779 -85.693753 20.845447 -12.090797 7.931778 20.819009 -3.182387 1.163998 1.366614 0.597712 0.515545 0.000000 0.000000 0.000000 20.703453 -3.699516 1.056119 6.880270 -2.644408 -6.344555 -15.969896 21.506432 -13.345331 0.000000 0.000000 0.000000 22.249529 -3.614214 1.510906 -0.443905 -8.112141 9.462462 -0.501388 -2.509026 -0.390553 -3.417205 28.222012 -65.463149 -171.953974 -78.697665 -170.984196 0.000000 0.000000 0.000000 21.253030 -3.671479 1.371391 7.727644 20.678237 12.491377 2.001113 4.482387 3.690578 -54.698228 36.497813 43.879427 179.087055 67.681601 -178.788370 0.000000 0.000000 0.000000 
7.755229 77.198723 -6.003239 0.000000 0.000000 0.000000 -46.236911 -83.118689 -35.264646 -3.138536 18.635189 18.777085 35.088072 4.215211 -2.960185 -22.705820 5.382431 -21.509647 -2.776581 -0.191502 -0.128261 0.000000 0.000000 0.000000 -28.770239 -81.012915 -17.986396 -39.532821 13.786469 -27.905779 55.305657 0.992133 -5.390107 -10.697950 4.807019 22.164375 1.863050 2.799433 0.911388 0.000000 0.000000 0.000000 -43.585971 -84.706162 -34.455046 19.321488 -10.858720 7.333700 19.631707 -3.041222 0.953824 0.530417 1.162982 0.012447 0.000000 0.000000 0.000000 20.059755 -3.665725 0.712887 5.403375 -2.336724 -4.273396 -12.443231 22.414459 -13.334834 0.000000 0.000000 0.000000 21.251336 -3.513010 1.161656 -0.343665 -7.738317 9.215588 -0.503542 -2.124550 -1.399061 -3.503286 22.297205 -66.407211 -176.560691 -70.864599 -175.383562 0.000000 0.000000 0.000000 20.688370 -3.604878 0.989038 7.828611 20.802663 11.359545 0.824600 6.043336 3.690265 -54.653746 32.772358 44.316654 -179.426160 69.139164 179.284106 0.000000 0.000000 0.000000 
